<svg width="40" height="40" viewBox="0 0 40 40" fill="none" xmlns="http://www.w3.org/2000/svg">
<path d="M39.4357 11.9697L39.437 11.9855L39.4393 12.0011C39.4768 12.2529 39.6657 13.798 39.1047 16.3519L39.1047 16.3521C38.2967 20.0354 36.4306 23.3849 33.7075 26.04C33.707 26.0405 33.7065 26.0409 33.706 26.0414L19.8833 39.3042L6.29405 26.0408L6.29377 26.0405C3.56992 23.386 1.70331 20.0353 0.895149 16.352L0.89513 16.352C0.334046 13.7969 0.523238 12.2521 0.561127 12.0015L0.56359 11.9852L0.564975 11.9688C1.13347 5.23013 5.53707 0.5 10.8913 0.5C14.4162 0.5 17.5895 2.52824 19.4502 5.95265L19.8847 6.75235L20.3266 5.9567C22.2022 2.57992 25.5168 0.500827 29.1086 0.500827C34.4635 0.500827 38.8664 5.23094 39.4357 11.9697Z" fill="white" stroke="white"/>
</svg>
