<svg width="40" height="40" viewBox="0 0 40 40" fill="none" xmlns="http://www.w3.org/2000/svg">
<path d="M39.9345 11.9276C39.3506 5.01562 34.8019 0.000827425 29.1092 0.000827425C25.3166 0.000827425 21.8441 2.19588 19.8901 5.71393C17.9539 2.15038 14.6237 0 10.8919 0C5.19999 0 0.650469 5.01479 0.0673556 11.9268C0.0211988 12.2321 -0.168044 13.8389 0.407377 16.4592C1.23666 20.2387 3.15217 23.6765 5.94542 26.3986L19.8809 40L34.0557 26.3994C36.8489 23.6765 38.7644 20.2395 39.5937 16.4592C40.1691 13.8397 39.9799 12.2329 39.9345 11.9276ZM38.0959 16.0803C37.3389 19.5321 35.5842 22.677 33.0264 25.1691L19.8901 37.7743L6.97933 25.1724C4.41686 22.6754 2.6629 19.5313 1.90516 16.0794C1.36051 13.5998 1.58437 12.199 1.58514 12.1899L1.59668 12.1063C2.09671 6.05068 6.00542 1.65477 10.8919 1.65477C14.4975 1.65477 17.6715 4.03765 19.1778 7.87258L19.8863 9.67877L20.5948 7.87258C22.0772 4.09639 25.419 1.6556 29.11 1.6556C33.9957 1.6556 37.9051 6.05151 38.4152 12.1857C38.4167 12.199 38.6406 13.6006 38.0959 16.0803Z" fill="white"/>
</svg>
