<svg width="1310" height="393" viewBox="0 0 1310 393" fill="none" xmlns="http://www.w3.org/2000/svg">
<path d="M1005.77 314L1104.67 283.965L1109.61 300.232L1003.65 332.408L956.56 305.233L965.06 290.509L1005.77 314Z" fill="#4682B4" fill-opacity="0.2"/>
<path d="M1005.77 284L1104.67 253.965L1109.61 270.232L1003.65 302.408L956.56 275.233L965.06 260.509L1005.77 284Z" fill="#4682B4" fill-opacity="0.2"/>
<path d="M1005.77 254L1104.67 223.965L1109.61 240.232L1003.65 272.408L956.56 245.233L965.06 230.509L1005.77 254Z" fill="#4682B4" fill-opacity="0.2"/>
<path d="M1005.77 224L1104.67 193.965L1109.61 210.232L1003.65 242.408L956.56 215.233L965.06 200.509L1005.77 224Z" fill="#4682B4" fill-opacity="0.2"/>
<path d="M1005.77 194L1104.67 163.965L1109.61 180.232L1003.65 212.408L956.56 185.234L965.06 170.51L1005.77 194Z" fill="#4682B4" fill-opacity="0.2"/>
<path d="M1005.77 164L1104.67 133.965L1109.61 150.232L1003.65 182.408L956.56 155.234L965.06 140.51L1005.77 164Z" fill="#4682B4" fill-opacity="0.2"/>
<path d="M1005.77 134L1104.67 103.965L1109.61 120.232L1003.65 152.408L956.56 125.234L965.06 110.51L1005.77 134Z" fill="#4682B4" fill-opacity="0.2"/>
<path d="M1005.77 104L1104.67 73.965L1109.61 90.232L1003.65 122.408L956.56 95.234L965.06 80.51L1005.77 104Z" fill="#4682B4" fill-opacity="0.2"/>
<path d="M1167.33 314L1266.24 283.965L1271.18 300.232L1165.22 332.408L1118.13 305.233L1126.62 290.509L1167.33 314Z" fill="#4682B4" fill-opacity="0.2"/>
<path d="M1167.33 344L1266.24 313.965L1271.18 330.232L1165.22 362.408L1118.13 335.233L1126.62 320.509L1167.33 344Z" fill="#4682B4" fill-opacity="0.2"/>
<path d="M1167.33 374L1266.24 343.965L1271.18 360.232L1165.22 392.408L1118.13 365.233L1126.62 350.509L1167.33 374Z" fill="#4682B4" fill-opacity="0.2"/>
<path d="M1167.33 284L1266.24 253.965L1271.18 270.232L1165.22 302.408L1118.13 275.233L1126.62 260.509L1167.33 284Z" fill="#4682B4" fill-opacity="0.2"/>
<path d="M1167.33 254L1266.24 223.965L1271.18 240.232L1165.22 272.408L1118.13 245.233L1126.62 230.509L1167.33 254Z" fill="#4682B4" fill-opacity="0.2"/>
<path d="M1167.33 224L1266.24 193.965L1271.18 210.232L1165.22 242.408L1118.13 215.233L1126.62 200.509L1167.33 224Z" fill="#4682B4" fill-opacity="0.2"/>
<path d="M1167.33 194L1266.24 163.965L1271.18 180.232L1165.22 212.408L1118.13 185.234L1126.62 170.51L1167.33 194Z" fill="#4682B4" fill-opacity="0.2"/>
<path d="M1167.33 164L1266.24 133.965L1271.18 150.232L1165.22 182.408L1118.13 155.234L1126.62 140.51L1167.33 164Z" fill="#4682B4" fill-opacity="0.2"/>
<path d="M1167.33 134L1266.24 103.965L1271.18 120.232L1165.22 152.408L1118.13 125.234L1126.62 110.51L1167.33 134Z" fill="#4682B4" fill-opacity="0.2"/>
<path d="M1167.33 104L1266.24 73.965L1271.18 90.232L1165.22 122.408L1118.13 95.234L1126.62 80.51L1167.33 104Z" fill="#4682B4" fill-opacity="0.2"/>
<path d="M1266.42 16.259V44.57L1271.18 60.232L1165.22 92.408L1118.13 65.234L1122.88 56.993V16.259H1104.86V44.57L1109.61 60.232L1003.65 92.408L956.56 65.234L961.32 56.993V26.259L0 0H1310.2V16.259H1266.42ZM1028.09 16.259V50.823L1080.01 38.362V16.259H1028.09ZM1189.65 16.259V50.823L1241.57 38.362V16.259H1189.65Z" fill="#4682B4" fill-opacity="0.2"/>
</svg>
