<svg width="1311" height="393" viewBox="0 0 1311 393" fill="none" xmlns="http://www.w3.org/2000/svg">
<path d="M304.43 78.408L205.53 108.443L200.59 92.176L306.55 60L353.64 87.175L345.14 101.899L304.43 78.408Z" fill="#4682B4" fill-opacity="0.2"/>
<path d="M304.43 108.408L205.53 138.443L200.59 122.176L306.55 90L353.64 117.175L345.14 131.899L304.43 108.408Z" fill="#4682B4" fill-opacity="0.2"/>
<path d="M304.43 138.408L205.53 168.443L200.59 152.176L306.55 120L353.64 147.175L345.14 161.899L304.43 138.408Z" fill="#4682B4" fill-opacity="0.2"/>
<path d="M304.43 168.408L205.53 198.443L200.59 182.176L306.55 150L353.64 177.175L345.14 191.899L304.43 168.408Z" fill="#4682B4" fill-opacity="0.2"/>
<path d="M304.43 198.408L205.53 228.443L200.59 212.176L306.55 180L353.64 207.174L345.14 221.898L304.43 198.408Z" fill="#4682B4" fill-opacity="0.2"/>
<path d="M304.43 228.408L205.53 258.443L200.59 242.176L306.55 210L353.64 237.174L345.14 251.898L304.43 228.408Z" fill="#4682B4" fill-opacity="0.2"/>
<path d="M304.43 258.408L205.53 288.443L200.59 272.176L306.55 240L353.64 267.174L345.14 281.898L304.43 258.408Z" fill="#4682B4" fill-opacity="0.2"/>
<path d="M304.43 288.408L205.53 318.443L200.59 302.176L306.55 270L353.64 297.174L345.14 311.898L304.43 288.408Z" fill="#4682B4" fill-opacity="0.2"/>
<path d="M142.87 78.408L43.9601 108.443L39.02 92.176L144.98 60L192.07 87.175L183.58 101.899L142.87 78.408Z" fill="#4682B4" fill-opacity="0.2"/>
<path d="M142.87 48.408L43.9601 78.443L39.02 62.176L144.98 30L192.07 57.175L183.58 71.899L142.87 48.408Z" fill="#4682B4" fill-opacity="0.2"/>
<path d="M142.87 18.408L43.9601 48.443L39.02 32.176L144.98 0L192.07 27.175L183.58 41.899L142.87 18.408Z" fill="#4682B4" fill-opacity="0.2"/>
<path d="M142.87 108.408L43.9601 138.443L39.02 122.176L144.98 90L192.07 117.175L183.58 131.899L142.87 108.408Z" fill="#4682B4" fill-opacity="0.2"/>
<path d="M142.87 138.408L43.9601 168.443L39.02 152.176L144.98 120L192.07 147.175L183.58 161.899L142.87 138.408Z" fill="#4682B4" fill-opacity="0.2"/>
<path d="M142.87 168.408L43.9601 198.443L39.02 182.176L144.98 150L192.07 177.175L183.58 191.899L142.87 168.408Z" fill="#4682B4" fill-opacity="0.2"/>
<path d="M142.87 198.408L43.9601 228.443L39.02 212.176L144.98 180L192.07 207.174L183.58 221.898L142.87 198.408Z" fill="#4682B4" fill-opacity="0.2"/>
<path d="M142.87 228.408L43.9601 258.443L39.02 242.176L144.98 210L192.07 237.174L183.58 251.898L142.87 228.408Z" fill="#4682B4" fill-opacity="0.2"/>
<path d="M142.87 258.408L43.9601 288.443L39.02 272.176L144.98 240L192.07 267.174L183.58 281.898L142.87 258.408Z" fill="#4682B4" fill-opacity="0.2"/>
<path d="M142.87 288.408L43.9601 318.443L39.02 302.176L144.98 270L192.07 297.174L183.58 311.898L142.87 288.408Z" fill="#4682B4" fill-opacity="0.2"/>
<path d="M43.7799 376.149V347.838L39.0199 332.176L144.98 300L192.07 327.174L187.32 335.415V376.149H205.34V347.838L200.59 332.176L306.55 300L353.64 327.174L348.88 335.415V366.149L1310.2 392.408H0V376.149H43.7799ZM282.11 376.149V341.585L230.19 354.046V376.149H282.11ZM120.55 376.149V341.585L68.63 354.046V376.149H120.55Z" fill="#4682B4" fill-opacity="0.2"/>
</svg>
